<?xml version="1.0" encoding="utf-8"?>
<!-- Generator: Adobe Illustrator 27.1.1, SVG Export Plug-In . SVG Version: 6.00 Build 0)  -->
<svg version="1.1" id="Lager_1" xmlns="http://www.w3.org/2000/svg" xmlns:xlink="http://www.w3.org/1999/xlink" x="0px" y="0px"
	 viewBox="0 0 51.69 51.56" style="enable-background:new 0 0 51.69 51.56;" xml:space="preserve">
<style type="text/css">
	.st0{fill:#424547;}
</style>
<g>
	<path class="st0" d="M36.73,0H14.96C6.71,0,0,6.71,0,14.96V36.6c0,8.25,6.71,14.96,14.96,14.96h21.77c8.25,0,14.96-6.71,14.96-14.96V14.96
		C51.69,6.71,44.98,0,36.73,0z M25.84,39.07c-7.31,0-13.28-5.97-13.28-13.28s5.97-13.28,13.28-13.28s13.28,5.97,13.28,13.28
		S33.15,39.07,25.84,39.07z M39.72,15.07c-1.71,0-3.1-1.39-3.1-3.1s1.39-3.1,3.1-3.1s3.1,1.38,3.1,3.1
		C42.82,13.68,41.43,15.07,39.72,15.07z"/>
	<path class="st0" d="M25.84,16.94c-4.91,0-8.84,3.93-8.84,8.84s3.93,8.84,8.84,8.84s8.85-3.93,8.85-8.84C34.69,20.87,30.75,16.94,25.84,16.94z"
		/>
</g>
</svg>
