<?xml version="1.0" encoding="utf-8"?>
<!-- Generator: Adobe Illustrator 27.1.1, SVG Export Plug-In . SVG Version: 6.00 Build 0)  -->
<svg version="1.1" id="Lager_1" xmlns="http://www.w3.org/2000/svg" xmlns:xlink="http://www.w3.org/1999/xlink" x="0px" y="0px"
	 viewBox="0 0 123 123" style="enable-background:new 0 0 123 123;" xml:space="preserve">
<style type="text/css">
	.st0{fill:#FDFDFF;}
</style>
<g class="st0">
	<g>
		<path d="M77.95,36.34c-1.15,0-1.91-0.11-2.39-0.33c-0.3-0.14-0.56-0.33-0.77-0.59c-0.25-0.3-0.39-0.68-0.4-1.09
			c-0.06-0.52,0.07-0.98,0.36-1.37c0.07-0.09,0.14-0.17,0.22-0.25c0.13-0.12,0.29-0.22,0.49-0.3c0.15-0.06,0.28-0.1,0.4-0.12
			l0.07-0.01l0.18-0.08c0.14-0.06,0.29-0.11,0.45-0.16c0.13-0.05,0.28-0.11,0.44-0.17l0.51-0.18l0.41,0.39l0.23,0.11
			c0.08,0.03,0.3,0.09,0.78,0.17c0.41,0.07,0.93,0.13,1.54,0.17c0.62,0.04,1.37,0.06,2.21,0.06c0.95,0,2.04-0.02,3.27-0.07
			c1.2-0.05,2.6-0.14,4.15-0.28c1.21-0.12,2.28-0.22,3.21-0.32c0.91-0.1,1.71-0.19,2.39-0.29c0.68-0.1,1.25-0.18,1.72-0.26
			c0.44-0.07,0.8-0.15,1.07-0.22c0.37-0.08,0.62-0.14,0.79-0.2c0.17-0.05,0.3-0.1,0.4-0.13c0.12-0.04,0.24-0.08,0.35-0.12
			c0.15-0.05,0.32-0.07,0.52-0.08l0.11,0c0.47,0,0.93,0.21,1.27,0.57c0.35,0.38,0.56,0.87,0.63,1.45c0.06,0.56-0.02,1.07-0.25,1.51
			c-0.28,0.54-0.73,0.87-1.29,0.95l-0.14,0.01c-0.04,0-0.12-0.01-0.25-0.02l-0.22,0l-0.22-0.09l-0.05-0.01
			c-0.05-0.01-0.23-0.03-0.74-0.03c-0.29,0-0.67,0.01-1.14,0.03c-0.48,0.02-1.08,0.05-1.81,0.09c-0.72,0.04-1.58,0.1-2.57,0.18
			c-1,0.08-2.16,0.18-3.48,0.29c-1.72,0.14-3.24,0.26-4.57,0.36c-1.33,0.1-2.5,0.18-3.5,0.25c-1.01,0.07-1.87,0.12-2.58,0.15
			C79.02,36.33,78.42,36.34,77.95,36.34z"/>
	</g>
	<g>
		<path d="M61.5,123C27.59,123,0,95.41,0,61.5C0,27.59,27.59,0,61.5,0c31.89,0,58.81,24.9,61.29,56.68l0.01,0.07l0.02,0.06
			c0.04,0.1,0.06,0.3,0.03,0.56c0.1,1.62,0.15,2.9,0.15,4.13C123,95.41,95.41,123,61.5,123z M115.44,61.86
			c-0.97,0.37-2.2,0.85-3.71,1.44c-1.44,0.56-3.23,1.29-5.37,2.18l-0.22,0.1c-0.32,0.15-0.66,0.29-1.03,0.42
			c-0.31,0.11-0.62,0.24-0.93,0.38c-2.16,0.92-4.61,1.96-7.39,3.15c-2.76,1.18-5.92,2.6-9.4,4.22c-2.13,0.99-4.45,2.16-6.92,3.46
			c-2.45,1.3-5.01,2.77-7.6,4.37c-1.25,0.79-2.57,1.67-3.92,2.62c-1.33,0.94-2.69,1.98-4.03,3.09c-1.32,1.09-2.64,2.28-3.91,3.53
			c-1.26,1.24-2.46,2.57-3.57,3.95c-1.3,1.69-2.4,3.28-3.29,4.73c-0.9,1.48-1.68,2.81-2.32,3.97L51.57,104
			c-0.67,1.25-1.28,2.42-1.82,3.5c-0.54,1.08-1.1,2.23-1.66,3.44c-0.29,0.62-0.58,1.26-0.86,1.91c-0.29,0.66-0.6,1.38-0.94,2.15
			c-0.17,0.37-0.33,0.75-0.49,1.17l-0.33,0.82l0.54,0.15c5.03,1.4,10.25,2.12,15.5,2.12c31.84,0,57.75-25.91,57.75-57.75l-0.01-1.08
			C119.24,60.42,116.62,61.41,115.44,61.86z M61.5,3.75C29.66,3.75,3.75,29.66,3.75,61.5c0,5.87,0.9,11.68,2.68,17.3
			c0.65,2.05,1.43,4.09,2.31,6.06c0.87,1.96,1.87,3.89,2.96,5.75c6.67,11.38,17.07,20.21,29.29,24.86l0.49,0.19l0.16-0.5
			c0.52-1.6,1.17-3.39,1.94-5.32c0.26-0.64,0.53-1.3,0.81-1.98c1.16-2.77,2.61-6.04,4.31-9.75c1.74-3.73,3.38-7.17,4.88-10.23
			c1.5-3.05,2.88-5.84,4.15-8.36l2.67-5.27c0.81-1.6,2.79-5.47,2.79-5.47c0.23-0.48,0.43-0.86,0.62-1.23l0.89-1.74l1.5-2.89
			l-1.93,0.78c-1.39,0.56-3.09,1.21-5.06,1.94c-1.96,0.73-4.42,1.57-7.32,2.51c-1.39,0.45-2.96,0.94-4.65,1.44
			c-1.7,0.5-3.5,1.01-5.38,1.52c-0.96,0.26-1.95,0.52-2.97,0.77c-1.03,0.26-2.09,0.51-3.19,0.77c-1.15,0.26-2.34,0.51-3.58,0.76
			c-1.21,0.24-2.42,0.46-3.59,0.64c-0.32,0.04-0.63,0.08-0.95,0.11c-0.29,0.03-0.57,0.06-0.83,0.1l-0.14,0.01
			c-0.05,0-0.11,0-0.16,0.01c-0.14,0.01-0.25,0.02-0.33,0.02h-0.41c-0.09,0-0.18-0.01-0.28-0.03l-0.07-0.01c0,0-0.08,0.01-0.08,0.01
			c-0.09,0-0.18-0.01-0.27-0.01c-0.2-0.02-0.42-0.06-0.66-0.15l-0.21-0.1c-0.48-0.32-0.85-0.63-1.11-0.95
			c-0.25-0.3-0.45-0.63-0.61-0.97c-0.13-0.32-0.23-0.6-0.31-0.89c-0.08-0.29-0.15-0.58-0.2-0.87c-0.05-0.36-0.08-0.69-0.1-1.01
			c-0.02-0.32-0.03-0.66-0.03-1.02c0-0.69,0.03-1.36,0.1-1.98c0.06-0.6,0.14-1.19,0.23-1.75c0.08-0.58,0.17-1.08,0.24-1.5
			c0.08-0.42,0.16-0.83,0.24-1.22l0.26-1.14l-0.42-0.15c-0.44-0.16-0.76-0.43-0.94-0.82c-0.1-0.18-0.49-0.99,0.29-2.11
			c0.38-0.54,0.9-1.07,1.54-1.57l0.21-0.16c0.02-0.01,0.33-0.19,0.42-0.24l0.28-0.19l0.05-0.17c0.58-2,1.13-3.79,1.63-5.32
			c0.55-1.67,1.07-3.19,1.54-4.52c0.48-1.38,0.98-2.73,1.48-4.04c0.49-1.29,1.06-2.72,1.7-4.24c0.63-1.47,1.4-3.19,2.29-5.1
			c0.89-1.92,2.04-4.17,3.41-6.69c0.95-1.7,1.86-3.26,2.71-4.64c0.86-1.4,1.78-2.7,2.73-3.85l0.24-0.23
			c0.16-0.19,0.39-0.43,0.61-0.66c0.28-0.28,0.6-0.53,0.95-0.74c0.2-0.11,0.36-0.19,0.52-0.26c0.22-0.1,0.44-0.17,0.64-0.2
			c0.15-0.03,0.29-0.05,0.44-0.05c0.13,0,0.26,0.01,0.38,0.03c0.23,0.04,0.46,0.12,0.7,0.23c0.46,0.25,0.79,0.53,1.02,0.89
			c0.18,0.28,0.31,0.56,0.4,0.82c0.13,0.42,0.21,0.81,0.24,1.18c0.04,0.36,0.04,0.71,0.02,1.06c0,0.28-0.01,0.59-0.03,0.88
			c-0.02,0.3-0.06,0.58-0.11,0.84c-0.12,0.96-0.31,1.95-0.55,2.9c-0.24,0.96-0.51,1.92-0.8,2.87c-0.27,0.91-0.57,1.83-0.89,2.78
			c-0.32,0.95-0.69,1.95-1.09,2.97c-1.31,3.28-2.63,6.18-3.91,8.6c-1.28,2.42-2.49,4.53-3.59,6.27c-1.14,1.82-2.17,3.33-3.05,4.48
			c-0.87,1.15-1.64,2.12-2.27,2.87c-0.63,0.72-1.2,1.35-1.7,1.86c-0.51,0.51-0.97,0.97-1.4,1.37c-0.35,0.32-0.66,0.61-0.94,0.85
			c-0.17,0.15-0.36,0.3-0.55,0.45l-0.1,0.08l-0.09,0.22c-0.29,1.11-0.55,2.19-0.78,3.3c-0.25,1.18-0.46,2.47-0.62,3.83
			c-0.04,0.28-0.06,0.57-0.07,0.87c-0.01,0.33-0.02,0.64-0.02,0.95c0,0.39,0.01,0.77,0.04,1.14c0.03,0.34,0.09,0.67,0.18,0.98
			c0.01,0.03,0.02,0.08,0.04,0.13l0.12,0.36l0.37-0.01c0.16,0,0.33-0.01,0.5-0.03c0.45-0.05,0.89-0.11,1.34-0.18
			c2.01-0.33,3.96-0.73,5.79-1.17c1.54-0.37,2.97-0.73,4.3-1.07l0.8-0.22c1.66-0.45,3.24-0.9,4.68-1.35
			c1.48-0.45,2.89-0.91,4.18-1.35c2.63-0.87,5.01-1.69,7.05-2.44c2.02-0.74,3.83-1.44,5.39-2.08c2.51-1.05,4.48-1.92,5.84-2.59
			c1.16-0.57,2.03-1,2.6-1.29l0.22-0.12c0.07-0.04,0.14-0.08,0.21-0.11l0.1-0.05c0.54-0.29,2-0.8,2.14-0.84
			c0.15-0.04,0.31-0.06,0.46-0.06c0.19,0,0.62,0.11,0.62,0.11s1.21,0.49,1.42,0.82c0.27,0.45,0.46,1.2-0.24,2.18
			c-0.05,0.07-0.43,0.9-0.56,1.17l-0.1,0.2l-0.18,0.31c-0.13,0.24-0.24,0.44-0.33,0.58c-0.22,0.39-0.59,1.04-1.11,1.93
			c-0.51,0.88-1.26,2.21-2.25,3.97c-0.74,1.3-1.61,2.87-2.62,4.7c-1.05,1.91-2.26,4.16-3.6,6.7c-1.14,2.13-2.4,4.5-3.78,7.12
			L57.72,88l1.99-1.7c1.52-1.31,2.99-2.48,4.37-3.46c1.42-1.01,2.79-1.93,4.05-2.74c1.28-0.8,2.48-1.52,3.54-2.13
			c1.08-0.62,2.12-1.2,3.12-1.74c0.97-0.53,1.91-1.04,2.84-1.52c0.92-0.48,1.85-0.96,2.78-1.44c0.93-0.47,1.88-0.95,2.84-1.42
			c0.96-0.47,1.98-0.97,3.06-1.48c3.26-1.54,6.17-2.88,8.67-3.99l6.69-2.98c0.18-0.09,0.36-0.16,0.52-0.22
			c0.1-0.04,0.2-0.08,0.31-0.14l8.82-3.95c0.73-0.33,1.39-0.63,1.98-0.91l1.52-0.71c0.67-0.3,1.24-0.56,1.74-0.78
			c0.5-0.22,1.06-0.46,1.67-0.71c0.12-0.05,0.24-0.09,0.36-0.14l0.38-0.13l-0.04-0.4C115.81,26.41,90.59,3.75,61.5,3.75z
			 M42.55,22.58c-0.77,1.37-2.54,4.71-3.3,6.25c-0.76,1.53-1.54,3.13-2.33,4.8c-0.98,2.08-1.81,3.92-2.48,5.48
			c-0.68,1.58-1.29,2.99-1.84,4.25c-0.08,0.26-0.14,0.42-0.22,0.56c-0.41,1.01-0.84,2.04-1.26,3.04l-1.6,3.83l2.46-3.34
			c0.2-0.28,0.41-0.56,0.62-0.85c1.24-1.73,2.64-3.98,4.15-6.67c1.51-2.69,3.03-5.86,4.51-9.43c0.41-1.02,0.8-2.1,1.16-3.21
			c0.14-0.44,0.99-3.8,1.04-4.84l0.33-1.5C43.79,20.96,42.67,22.36,42.55,22.58z"/>
	</g>
</g>
</svg>
