<?xml version="1.0" encoding="utf-8"?>
<!-- Generator: Adobe Illustrator 27.1.1, SVG Export Plug-In . SVG Version: 6.00 Build 0)  -->
<svg version="1.1" id="Lager_1" xmlns="http://www.w3.org/2000/svg" xmlns:xlink="http://www.w3.org/1999/xlink" x="0px" y="0px"
	 viewBox="0 0 124 124" style="enable-background:new 0 0 124 124;" xml:space="preserve">
<style type="text/css">
	.st0{fill:#FDFDFF;}
</style>
<g id="XMLID_00000065769658633519960440000016442765907239582348_" class="st0">
	<g>
		<path d="M78.8,32.22c0.07,0.02,0.27,0.08,0.7,0.15c0.4,0.07,0.9,0.12,1.49,0.16c1.31,0.08,3.14,0.07,5.42-0.02
			c1.19-0.04,2.58-0.14,4.13-0.27c1.2-0.12,2.27-0.23,3.2-0.33c0.9-0.09,1.69-0.19,2.36-0.28c0.68-0.1,1.25-0.19,1.71-0.27
			c0.42-0.06,0.77-0.13,1.03-0.2c0.37-0.09,0.6-0.14,0.77-0.19c0.16-0.05,0.28-0.1,0.37-0.13c0.13-0.05,0.25-0.09,0.37-0.13
			c0.2-0.06,0.41-0.09,0.66-0.1c0.64-0.03,1.29,0.22,1.76,0.73c0.43,0.46,0.69,1.04,0.76,1.74c0.07,0.66-0.03,1.26-0.3,1.79
			c-0.36,0.68-0.95,1.12-1.66,1.22l-0.17,0.01c-0.07,0-0.18,0-0.35-0.02h-0.25l-0.25-0.1c-0.04-0.01-0.2-0.03-0.66-0.03
			c-0.28,0-0.66,0.02-1.12,0.03c-0.47,0.02-1.07,0.05-1.8,0.09c-0.71,0.04-1.57,0.1-2.55,0.18c-1,0.07-2.16,0.17-3.48,0.29
			c-1.73,0.14-3.25,0.26-4.58,0.36c-1.33,0.09-2.49,0.18-3.5,0.25s-1.88,0.12-2.59,0.15c-0.74,0.03-1.34,0.04-1.82,0.04
			c-1.24,0-2.04-0.12-2.6-0.38c-0.36-0.17-0.68-0.41-0.94-0.73c-0.32-0.39-0.5-0.87-0.52-1.39c-0.07-0.6,0.09-1.19,0.46-1.68
			c0.09-0.12,0.18-0.23,0.29-0.32c0.18-0.17,0.4-0.3,0.63-0.39c0.16-0.07,0.33-0.12,0.51-0.15c0.05-0.02,0.09-0.04,0.14-0.06
			c0.16-0.07,0.32-0.13,0.49-0.18c0.04-0.02,0.22-0.09,0.42-0.16l0.8-0.28l0.57,0.54C78.74,32.18,78.77,32.2,78.8,32.22z"/>
		<path d="M62,119.25c31.57,0,57.25-25.68,57.25-57.25c0-0.12,0-0.24,0-0.36c-0.16,0.06-0.34,0.13-0.54,0.2
			c-0.55,0.21-1.41,0.54-2.59,0.99c-0.96,0.37-2.2,0.85-3.7,1.44c-1.44,0.56-3.23,1.29-5.37,2.17l-0.19,0.09
			c-0.34,0.16-0.7,0.31-1.08,0.44c-0.29,0.1-0.59,0.22-0.88,0.36c-2.18,0.93-4.63,1.97-7.41,3.16c-2.75,1.18-5.91,2.6-9.38,4.22
			c-2.13,0.99-4.45,2.15-6.89,3.45c-2.45,1.29-5,2.76-7.58,4.35c-1.24,0.78-2.55,1.65-3.89,2.6c-1.32,0.94-2.67,1.97-4,3.07
			c-1.32,1.08-2.62,2.26-3.88,3.5c-1.24,1.23-2.43,2.55-3.53,3.91c-1.28,1.67-2.37,3.25-3.25,4.68c-0.89,1.47-1.67,2.8-2.31,3.95
			l-0.27,0.51c-0.67,1.25-1.28,2.41-1.82,3.49c-0.54,1.08-1.09,2.23-1.66,3.43c-0.29,0.62-0.57,1.25-0.85,1.9
			c-0.29,0.66-0.6,1.38-0.94,2.15c-0.16,0.36-0.32,0.74-0.48,1.15c-0.04,0.1-0.08,0.2-0.13,0.3C51.63,118.54,56.79,119.25,62,119.25
			z M12.63,90.85c6.48,11.05,16.6,19.91,29.03,24.65c0.53-1.62,1.18-3.41,1.96-5.35c0.26-0.64,0.53-1.31,0.81-1.98
			c1.17-2.78,2.62-6.07,4.32-9.77c1.74-3.74,3.39-7.19,4.88-10.23c1.5-3.06,2.89-5.84,4.15-8.37l2.67-5.26
			c0.82-1.61,1.56-3.07,2.24-4.39l0.55-1.09c0.23-0.47,0.43-0.86,0.63-1.23l1.42-2.76l0.35-0.67c-0.22,0.09-0.45,0.18-0.68,0.28
			c-1.38,0.55-3.09,1.21-5.08,1.94c-1.97,0.73-4.44,1.58-7.34,2.52c-1.4,0.45-2.97,0.93-4.66,1.44c-1.71,0.5-3.5,1.01-5.39,1.52
			c-0.96,0.26-1.95,0.52-2.98,0.78c-1.03,0.26-2.1,0.51-3.2,0.77c-1.16,0.26-2.36,0.51-3.6,0.76c-1.23,0.25-2.44,0.46-3.62,0.65
			c-0.34,0.04-0.65,0.08-0.97,0.11c-0.29,0.03-0.56,0.06-0.81,0.09l-0.17,0.02c-0.06,0-0.1,0-0.14,0c-0.18,0.02-0.3,0.03-0.39,0.03
			h-0.42c-0.12,0-0.24-0.01-0.37-0.04c-0.08,0.01-0.22,0-0.36-0.01c-0.25-0.02-0.51-0.08-0.79-0.18l-0.26-0.12
			c-0.59-0.38-1-0.73-1.29-1.09c-0.27-0.33-0.5-0.7-0.67-1.07c-0.15-0.36-0.26-0.66-0.34-0.97c-0.09-0.3-0.16-0.61-0.21-0.92
			c-0.06-0.38-0.09-0.72-0.11-1.06c-0.03-0.33-0.04-0.68-0.04-1.05c0-0.71,0.04-1.4,0.11-2.04c0.06-0.61,0.14-1.2,0.23-1.77
			c0.08-0.58,0.16-1.08,0.24-1.51c0.07-0.43,0.16-0.84,0.25-1.24c0.05-0.24,0.11-0.47,0.16-0.71c-0.69-0.24-1.05-0.7-1.23-1.07
			c-0.15-0.26-0.6-1.28,0.33-2.61c0.41-0.59,0.97-1.15,1.65-1.68c0.03-0.03,0.07-0.06,0.11-0.09v-0.01l0.08-0.04
			c0.05-0.04,0.1-0.07,0.16-0.1l0.06-0.04c0.09-0.05,0.18-0.1,0.26-0.15c0.03-0.02,0.07-0.04,0.12-0.08c0.58-2,1.13-3.79,1.63-5.33
			c0.55-1.67,1.07-3.2,1.55-4.53c0.49-1.38,0.98-2.73,1.48-4.05c0.49-1.3,1.07-2.73,1.71-4.25c0.64-1.49,1.41-3.21,2.3-5.12
			c0.89-1.93,2.04-4.19,3.42-6.72c0.96-1.71,1.87-3.28,2.72-4.66c0.87-1.42,1.8-2.74,2.77-3.91l0.27-0.27
			c0.14-0.16,0.37-0.41,0.61-0.65c0.31-0.31,0.66-0.59,1.05-0.82c0.23-0.13,0.4-0.21,0.57-0.29c0.26-0.12,0.52-0.21,0.77-0.25
			c0.31-0.06,0.67-0.07,1-0.01c0.26,0.05,0.54,0.14,0.81,0.27c0.57,0.3,0.96,0.65,1.23,1.07c0.2,0.32,0.35,0.63,0.45,0.94
			c0.14,0.46,0.23,0.88,0.27,1.29c0.04,0.38,0.04,0.77,0.02,1.14c0,0.26-0.01,0.58-0.04,0.88c-0.02,0.32-0.06,0.61-0.11,0.89
			c-0.12,0.94-0.31,1.97-0.55,2.94c-0.25,0.96-0.52,1.94-0.82,2.89c-0.27,0.91-0.57,1.84-0.89,2.79c-0.32,0.95-0.69,1.96-1.1,3
			c-1.32,3.3-2.65,6.21-3.94,8.65c-1.28,2.43-2.5,4.55-3.61,6.3c-1.15,1.83-2.18,3.35-3.07,4.52c-0.87,1.16-1.64,2.13-2.29,2.89
			c-0.63,0.74-1.22,1.37-1.73,1.89c-0.51,0.52-0.98,0.98-1.41,1.39c-0.36,0.32-0.68,0.61-0.96,0.86c-0.18,0.15-0.37,0.31-0.56,0.46
			c-0.02,0.04-0.04,0.08-0.06,0.12c-0.24,0.95-0.49,2.02-0.74,3.19c-0.24,1.16-0.45,2.44-0.61,3.79c-0.04,0.28-0.06,0.54-0.07,0.82
			c-0.01,0.32-0.01,0.63-0.01,0.93c0,0.38,0.01,0.74,0.04,1.1c0.02,0.31,0.08,0.6,0.16,0.89c0.01,0.04,0.02,0.07,0.03,0.11
			c0.15,0,0.3-0.01,0.46-0.03c0.44-0.04,0.87-0.11,1.31-0.18c2-0.33,3.94-0.72,5.75-1.16c1.54-0.37,2.97-0.73,4.29-1.07l0.79-0.22
			c1.66-0.45,3.23-0.9,4.67-1.34c1.48-0.45,2.88-0.91,4.17-1.35c2.64-0.87,5-1.69,7.03-2.43c2.01-0.74,3.82-1.44,5.38-2.08
			c2.5-1.04,4.45-1.91,5.81-2.57c1.16-0.57,2.03-1,2.6-1.29l0.19-0.11c0.09-0.05,0.17-0.09,0.26-0.13l0.05-0.03
			c0.59-0.31,1.18-0.55,1.76-0.69c0.13-0.08,0.32-0.15,0.51-0.2c0.44-0.11,0.9-0.09,1.32,0.05c0.93,0.1,1.46,0.62,1.73,1.05
			c0.29,0.48,0.64,1.47-0.26,2.73c-0.06,0.08-0.11,0.15-0.17,0.22c-0.09,0.3-0.21,0.59-0.35,0.88l0.02,0.01l-0.1,0.15
			c-0.01,0.02-0.02,0.05-0.03,0.07L73.6,61.4l-0.02-0.01c-0.13,0.25-0.25,0.46-0.34,0.61c-0.21,0.37-0.59,1.02-1.11,1.92
			c-0.51,0.88-1.26,2.2-2.25,3.96c-0.74,1.3-1.61,2.86-2.62,4.69c-1.04,1.91-2.25,4.16-3.59,6.7c-1.14,2.12-2.4,4.49-3.78,7.12
			c0,0.01-0.01,0.02-0.01,0.03c1.53-1.33,3.01-2.5,4.4-3.49c1.44-1.02,2.81-1.94,4.08-2.75c1.29-0.81,2.49-1.53,3.56-2.14
			c1.09-0.63,2.13-1.21,3.13-1.75c0.97-0.53,1.92-1.04,2.84-1.52c0.92-0.49,1.85-0.97,2.79-1.44c0.93-0.48,1.88-0.95,2.84-1.43
			c0.97-0.47,1.99-0.97,3.07-1.48c3.25-1.54,6.17-2.88,8.68-4l6.68-2.98c0.19-0.08,0.38-0.16,0.55-0.23
			c0.09-0.02,0.17-0.06,0.25-0.11l8.84-3.96c0.73-0.33,1.39-0.64,1.98-0.91l1.51-0.71c0.68-0.3,1.26-0.56,1.76-0.78
			c0.5-0.22,1.06-0.45,1.68-0.71c0.13-0.06,0.26-0.11,0.39-0.15C115.84,27.18,90.9,4.75,62,4.75C30.43,4.75,4.75,30.43,4.75,62
			c0,5.91,0.93,11.68,2.66,17.14c0.65,2.05,1.42,4.06,2.29,6.01C10.57,87.11,11.55,89.01,12.63,90.85z M123.85,57.93
			c0.1,1.54,0.15,2.83,0.15,4.07c0,34.18-27.81,62-62,62S0,96.18,0,62C0,27.81,27.81,0,62,0c32.15,0,59.29,25.1,61.79,57.14
			C123.86,57.34,123.89,57.63,123.85,57.93z M43.71,23.05c-0.02,0.03-0.03,0.06-0.05,0.09c-0.39,0.67-0.78,1.34-1.15,2.01
			c-0.78,1.4-1.56,2.88-2.31,4.4c-0.76,1.53-1.53,3.13-2.33,4.8c-0.97,2.06-1.81,3.9-2.48,5.46c-0.67,1.58-1.28,3-1.83,4.26
			c-0.08,0.24-0.15,0.42-0.24,0.59c-0.39,0.97-0.82,2-1.24,3c0.2-0.27,0.41-0.55,0.62-0.84c1.23-1.72,2.61-3.95,4.12-6.63
			c1.5-2.67,3.01-5.83,4.48-9.38c0.41-1,0.79-2.07,1.15-3.17c0.36-1.12,0.69-2.24,0.97-3.32C43.53,23.91,43.62,23.49,43.71,23.05z"
			/>
	</g>
	<g>
	</g>
</g>
</svg>
